<svg xmlns="http://www.w3.org/2000/svg"  viewBox="0 0 48 48" width="48px" height="48px"><path fill="#ffcc80" d="M9.5,26.906C10.5,16.906,13,18,13,18c2,0,2-2,2-2c0-5,4.262-10,10.593-10	C30.875,6,37,10.416,37,18.051c0,11.299-7.752,13.287-10.32,19.611C25.536,40.471,23.768,44,19.018,44S13,39.066,13,38c0,0,0-2-2-2	S8.5,33.906,9.5,26.906z"/><path fill="#ed9118" d="M31.76,12.24l-1.34,1.34C30,13,29.02,12,28,12c-3.75,0-6.64,6.45-3,11c4,5-2,12-5,12s-3-2.63-3-3.15	c0-3.35,3-2.52,3-5.57c0-2.23-3-1.76-3-3.43c0-2.76,2.57-3.18,3.39-5.85c1.61-5,3.86-7,6.24-7C28.22,10,30.25,10.59,31.76,12.24z"/><path fill="#d84315" d="M36,4h9c-1.025,1.025-5.948,5.641-7.231,6.923C38.538,10.923,43.462,11,45,11	c-0.377,0.387-16,13-16,13l6-10h-6L36,4z"/></svg>