<svg xmlns="http://www.w3.org/2000/svg"  viewBox="0 0 48 48" width="48px" height="48px"><path fill="#7cb342" d="M48,42H0c0-15.73,4.89-24.77,10.11-29.84C15.16,7.21,20.52,6,22,6c3,0,1,0,4,0	c1.48,0,6.84,1.21,11.89,6.16C43.11,17.23,48,26.27,48,42z"/><path fill="#689f38" d="M2.42,25C0.935,29.544,0,35.131,0,42h48c0-6.869-0.935-12.456-2.42-17c0,0-2.58,4-7.58,4	c-3,0-5-2-9-2c-1,0-4,1-5,1c-4.344,0-3.919-2-8-2c-5,0-6,2-9,2S2.42,25,2.42,25z"/><path fill="#a48b82" d="M26,6c-3,0-1,0-4,0c-1.463,0-6.719,1.189-11.718,6c0,0,1.718,3,3.718,3c3,0,3-1,5-1c3,0,2,2,6,2	c2,0,3-2,5-2c1.14,0,2,1,4,1s3.718-3,3.718-3C32.719,7.189,27.463,6,26,6z"/><path fill="#795548" d="M39,42c0-9-13-9-13-16c0-5,4-6,4-12c0-5-4-8-4-8h-4c0,0,2,2,2,7c0,6-9,7-9,15c0,6,7,8,7,14H39z"/></svg>