<svg xmlns="http://www.w3.org/2000/svg"  viewBox="0 0 48 48" width="48px" height="48px"><path fill="#673AB7" d="M13 5H17V43H13zM31 5H35V43H31z"/><path fill="#673AB7" d="M5 13H43V17H5z"/><path fill="#9575CD" d="M29.8 18.2L29.8 18.2c-.8-.8-.8-2 0-2.8l3.7-3.7c.8-.8 2-.8 2.8 0l0 0c.8.8.8 2 0 2.8l-3.7 3.7C31.8 19 30.5 19 29.8 18.2zM11.8 18.2L11.8 18.2c-.8-.8-.8-2 0-2.8l3.7-3.7c.8-.8 2-.8 2.8 0l0 0c.8.8.8 2 0 2.8l-3.7 3.7C13.8 19 12.5 19 11.8 18.2z"/><g><path fill="#FFB74D" d="M20 35A2 2 0 1 0 20 39 2 2 0 1 0 20 35zM21 31A2 2 0 1 0 21 35 2 2 0 1 0 21 31zM21 27A2 2 0 1 0 21 31 2 2 0 1 0 21 27zM21 23A2 2 0 1 0 21 27 2 2 0 1 0 21 23z"/><path fill="#FFB74D" d="M10,39h10l1-6V23H8c-1.7,0-3,1.3-3,3v8C5,36.8,7.2,39,10,39z"/><path fill="#FFB74D" d="M13 26H5v0c0-3.3 2.7-6 6-6h2V26zM28 35A2 2 0 1 0 28 39 2 2 0 1 0 28 35zM27 31A2 2 0 1 0 27 35 2 2 0 1 0 27 31zM27 27A2 2 0 1 0 27 31 2 2 0 1 0 27 27zM27 23A2 2 0 1 0 27 27 2 2 0 1 0 27 23z"/><path fill="#FFB74D" d="M38,39H28l-1-6V23h13c1.7,0,3,1.3,3,3v8C43,36.8,40.8,39,38,39z"/><path fill="#FFB74D" d="M35,26h8v0c0-3.3-2.7-6-6-6h-2V26z"/></g><g><path fill="#E39D36" d="M13 23L13 20 12 20 10.5 23zM35 23L35 20 36 20 37.5 23z"/></g></svg>