<svg xmlns="http://www.w3.org/2000/svg"  viewBox="0 0 32 40" width="48px" height="48px"><g data-name="Слой 2"><path fill="#b0bec5" d="M29.5,0H20.12a1.5,1.5,0,0,0-1.5,1.5,1.432,1.432,0,0,0,.093.5H17.12a1.5,1.5,0,0,0-1.5,1.5,1.442,1.442,0,0,0,.148.637A2.994,2.994,0,0,0,13.62,7v3H19V9a2,2,0,0,1,2-2h3.5a1.49,1.49,0,0,0,1.41-2H27.5A1.5,1.5,0,0,0,29,3.5a1.4,1.4,0,0,0-.1-.5h.6a1.5,1.5,0,0,0,0-3Z"/><path fill="#607d8b" d="M27,17V11H5v6L0,30V40H32V30Z"/><path fill="#90a4ae" d="M4.857,13H27.143A1.936,1.936,0,0,0,29,11a1.936,1.936,0,0,0-1.857-2H4.857A1.936,1.936,0,0,0,3,11,1.936,1.936,0,0,0,4.857,13Z"/><path fill="#ffeb3b" d="M16.445,19H19.82l-4.265,6H20l-4.621,6.09,1.957.711L12.18,35l.886-5.687,1.067,1.242L16.27,27H12Z"/></g></svg>