<svg xmlns="http://www.w3.org/2000/svg"  viewBox="0 0 48 48" width="48px" height="48px"><path fill="#FFCC80" d="M15.693,20l-4.367,4.504c-0.813,0.809-1.381,1.648-1.318,2.679c-0.06,0.885,0.232,1.835,0.968,2.817l2.692,3.846c2.766,2.768,4.689,4.873,8.393,5.108C22.277,38.981,22.5,39,22.73,39h6.879c5.1,0,9.381-4.056,9.381-9.154c0,0,0-4.305,0-9.846H15.693z"/><path fill="#FFCC80" d="M33,21.086C33,22.689,34.35,24,36,24c1.652,0,3-1.311,3-2.914l-0.025-4.174c0-1.603-1.348-2.912-3-2.912c-1.65,0-3,1.31-3,2.912L33,21.086z"/><path fill="#FFCC80" d="M27 21.086C27 22.689 28.324 24 29.975 24 31.627 24 33 22.689 33 21.086v-7.174C33 12.31 31.65 11 30 11s-3 1.31-3 2.912V21.086zM21 21c0 1.604 1.325 2.914 2.975 2.914C25.627 23.914 27 22.604 27 21v-9.088C27 10.31 25.65 9 24 9s-3 1.31-3 2.912V21zM15 21c0 1.604 1.325 2.914 2.976 2.914C19.626 23.914 21 22.604 21 21v-7.088C21 12.31 19.651 11 18 11c-1.65 0-3 1.31-3 2.912V21z"/><g><path fill="#FFEBEE" d="M33.99 20.9c.012 1.172.914 2.112 2.021 2.1 1.104-.013 1.99-.975 1.977-2.143C37.977 19.685 33.979 19.729 33.99 20.9M27.99 20.9c.012 1.172.914 2.112 2.021 2.1 1.104-.013 1.99-.975 1.977-2.143C31.977 19.685 27.979 19.729 27.99 20.9"/></g><g><path fill="#F2A86B" d="M38.975 21.086c0 1.604-1.348 2.914-3 2.914-1.65 0-3-1.311-3-2.914 0 1.01-.535 1.901-1.344 2.425C32.48 25.055 34.096 26 35.975 26c1.133 0 2.166-.386 3.006-1.012C38.984 23.043 38.975 21.086 38.975 21.086zM15.035 20.744L15 20.873l.37-.369C15.864 20.176 16.443 20 17.035 20h6c1.656 0 3 1.343 3 3s-1.344 3-3 3h-4.092l2.092 2h2c2.756 0 5-2.243 5-5s-2.244-4-5-4c0 0 .971 0-2.015 0C17.035 19 15.822 20.264 15.035 20.744z"/><path fill="#F2A86B" d="M20.87 26h-1.927l-.744.612c0 0 7.29 4.377 7.799 11.388l.012 1h2.025C28.035 31.849 23.348 27.696 20.87 26zM32.975 21.086c0 1.604-1.348 2.914-3 2.914-1.568 0-2.85-1.188-2.975-2.681v3.744C27.83 25.658 28.855 26 29.975 26c1.133 0 2.166-.386 3.006-1.012C32.984 23.043 32.975 21.086 32.975 21.086zM21.044 14L19.044 20 21.044 20z"/><path fill="#F2A86B" d="M27.045 12L25.045 20 27.045 21.319z"/></g></svg>