<svg xmlns="http://www.w3.org/2000/svg"  viewBox="0 0 48 48" width="48px" height="48px"><path fill="#DDC68E" d="M5 11H43V37H5z"/><path fill="#FFECB3" d="M5 11.002H11V37.002H5zM37 11.002H43V37.002H37z"/><path fill="#7986CB" d="M12 9.5c0 .829-.671 1.5-1.5 1.5h-5C4.671 11 4 10.329 4 9.5l0 0C4 8.671 4.671 8 5.5 8h5C11.329 8 12 8.671 12 9.5L12 9.5zM44 9.5c0 .829-.672 1.5-1.5 1.5h-5c-.828 0-1.5-.671-1.5-1.5l0 0C36 8.671 36.672 8 37.5 8h5C43.328 8 44 8.671 44 9.5L44 9.5zM12 38.5c0 .829-.671 1.5-1.5 1.5h-5C4.671 40 4 39.329 4 38.5l0 0C4 37.671 4.671 37 5.5 37h5C11.329 37 12 37.671 12 38.5L12 38.5zM44 38.5c0 .829-.672 1.5-1.5 1.5h-5c-.828 0-1.5-.671-1.5-1.5l0 0c0-.829.672-1.5 1.5-1.5h5C43.328 37 44 37.671 44 38.5L44 38.5z"/><g><path fill="#A88A4E" d="M16 15H32V17H16zM21 19H32V21H21zM18 23H32V25H18zM16 27H32V29H16zM25 31H32V33H25z"/></g><g><path fill="#3949AB" d="M8 4A2 2 0 1 0 8 8 2 2 0 1 0 8 4zM40 4A2 2 0 1 0 40 8 2 2 0 1 0 40 4zM8 40A2 2 0 1 0 8 44 2 2 0 1 0 8 40zM40 40A2 2 0 1 0 40 44 2 2 0 1 0 40 40z"/></g></svg>