<svg xmlns="http://www.w3.org/2000/svg"  viewBox="0 0 48 48" width="48px" height="48px"><path fill="#ff3d00" d="M43,43H5l3-21h32L43,43z M33,22L24,8l3,14l0,0H33L33,22z M45,22L24,8l15,14l0,0H45L45,22z M15,22h6l0,0l3-14L15,22L15,22z M3,22h6l0,0L24,8L3,22L3,22z"/><path fill="#fff" d="M9,43l4-21h4l-3,21H9z M39,43l-4-21h-4l3,21H39z M27,22L24,8l-3,14l0,0H27L27,22z M39,22L24,8l9,14l0,0H39L39,22z M9,22h6l0,0l9-14L9,22L9,22z"/><path fill="#dd2c00" d="M40.358,24.506c-0.014-0.009-0.03-0.016-0.043-0.025c0.011-0.02,0.02-0.042,0.031-0.062L40,22h-3c0,0.907,0.261,1.747,0.685,2.481C37.205,24.808,36.625,25,36,25s-1.205-0.192-1.685-0.519C34.739,23.747,35,22.907,35,22h-4c0,0.907,0.261,1.747,0.685,2.481C31.205,24.808,30.625,25,30,25s-1.205-0.192-1.685-0.519C28.739,23.747,29,22.907,29,22h-4c0,0.907,0.261,1.747,0.685,2.481C25.205,24.808,24.625,25,24,25s-1.205-0.192-1.685-0.519C22.739,23.747,23,22.907,23,22h-4c0,0.907,0.261,1.747,0.685,2.481C19.205,24.808,18.625,25,18,25s-1.205-0.192-1.685-0.519C16.739,23.747,17,22.907,17,22h-4c0,0.907,0.261,1.747,0.685,2.481C13.205,24.808,12.625,25,12,25s-1.205-0.192-1.685-0.519C10.739,23.747,11,22.907,11,22H8l-0.346,2.42c0.011,0.02,0.019,0.042,0.031,0.062c-0.014,0.009-0.029,0.016-0.043,0.025l-0.328,2.296C7.929,26.628,8.502,26.352,9,25.975C9.838,26.609,10.87,27,12,27s2.162-0.391,3-1.025C15.838,26.609,16.87,27,18,27s2.162-0.391,3-1.025C21.838,26.609,22.87,27,24,27s2.162-0.391,3-1.025C27.838,26.609,28.87,27,30,27s2.162-0.391,3-1.025C33.838,26.609,34.87,27,36,27s2.162-0.391,3-1.025c0.498,0.377,1.071,0.654,1.686,0.828L40.358,24.506z"/><path fill="#b71c1c" d="M20 43L24 22 28 43z"/><path fill="#880e4f" d="M24.934,26.901l-0.373-1.96C24.378,24.976,24.192,25,24,25s-0.378-0.024-0.56-0.059l-0.373,1.96C23.369,26.961,23.679,27,24,27S24.631,26.961,24.934,26.901z"/><path fill="#b0bec5" d="M35.565 24.967c-.458-.067-.884-.236-1.25-.486C34.739 23.747 35 22.907 35 22h-4l.188 1.319c.118.41.287.799.497 1.162-.097.066-.201.122-.306.177l.291 2.04c.48-.176.928-.419 1.329-.723.826.625 1.841 1.01 2.952 1.021L35.565 24.967zM16.315 24.481c.21-.363.379-.752.497-1.162L17 22h-4c0 .907.261 1.747.685 2.481-.367.25-.792.419-1.25.486l-.386 2.029c1.111-.011 2.126-.396 2.952-1.021.401.304.849.547 1.329.723l.291-2.04C16.516 24.604 16.412 24.547 16.315 24.481z"/><path fill="#90caf9" d="M24 4L24 8 31 6z"/><path fill="#ffd600" d="M27,22h6c0,1.656-1.343,3-3,3S27,23.656,27,22z M36,25c1.657,0,3-1.344,3-3h-6C33,23.656,34.343,25,36,25z M42,25c1.657,0,3-1.344,3-3h-6C39,23.656,40.343,25,42,25z M24,25c1.657,0,3-1.344,3-3h-6C21,23.656,22.343,25,24,25z M6,25c1.657,0,3-1.344,3-3H3C3,23.656,4.343,25,6,25z M18,25c1.657,0,3-1.344,3-3h-6C15,23.656,16.343,25,18,25z M12,25c1.657,0,3-1.344,3-3H9C9,23.656,10.343,25,12,25z"/></svg>