<svg xmlns="http://www.w3.org/2000/svg"  viewBox="0 0 48 48" width="48px" height="48px"><path fill="#4e342e" d="M16,12h16l-1,17H17L16,12z"/><path fill="#e91e63" d="M35.106,31.3c-0.1-0.2-0.2-0.3-0.3-0.4c-2.589-3.2-6.768-3.9-6.768-3.9h-8.077 c0,0-4.179,0.7-6.768,3.9c-0.1,0.1-0.2,0.2-0.3,0.4C8.705,35.9,9.005,44,9.005,44h29.991C38.995,44,39.295,35.9,35.106,31.3z"/><path fill="#ffb74d" d="M28,27v-2.2c1.8-1.3,3-3.6,3-6.2v-5.7c0-6.3-14-4.1-14,0v5.7c0,2.5,1.2,4.8,3,6.1V27c0,0,1,2,4,2 S28,27,28,27z"/><path fill="#64b5f6" d="M32.3,44c-0.3-0.4-0.7-0.7-1.1-1l-8-5.2c-2.6-1.7-6.1-0.9-7.8,1.7c-0.9,1.4,0,3.6,1.4,4.5H32.3z"/><path fill="#ffd180" d="M13,37c0,2.209,1.791,4,4,4s4-1.791,4-4s-1.791-4-4-4S13,34.791,13,37z"/><path fill="#795548" d="M23.5,4C17.9,4.1,12,7.7,12,24l5,4V17l10-6l4,4v13l5-4c0-3.3,0.3-18-9-18l-1-2H23.5z"/><path fill="#784719" d="M26,18c0-0.6,0.4-1,1-1s1,0.4,1,1s-0.4,1-1,1S26,18.6,26,18 M20,18c0,0.6,0.4,1,1,1s1-0.4,1-1 s-0.4-1-1-1S20,17.4,20,18"/><path fill="#ff9800" d="M20,27v-2.3c1.1,0.8,2.5,1.3,4.1,1.3c1.5,0,2.8-0.5,3.9-1.2V27c0,0-1,3-4,3S20,27,20,27z"/></svg>